<svg xmlns="http://www.w3.org/2000/svg" width="36.44" height="33" viewBox="0 0 36.44 33">
  <defs>
    <style>
      .cls-1 {
        fill: #16ad9e;
        fill-rule: evenodd;
      }
    </style>
  </defs>
  <path class="cls-1" d="M1531.67,875.924l-10.23-5.137,4.94-2.271,9.34,5.024Zm-0.3,6.367-4.99,2.7-4.94-2.3,10.23-5.106,4.04,2.384Zm-10.8,15.776V883.874l5.47,2.546a0.88,0.88,0,0,0,.37.08,0.832,0.832,0,0,0,.41-0.1l4.13-2.228v8.577Zm-11.96-13.894,4.12,2.224a0.86,0.86,0,0,0,.41.1,0.848,0.848,0,0,0,.37-0.08l5.47-2.546v14.193l-10.37-5.319v-8.575Zm-0.68-6.594,10.19,5.106-4.95,2.3-4.99-2.7-4.33-2.325Zm5.24-9.063,4.94,2.271-10.18,5.137-4.09-2.387Zm6.61,13.38-10.27-5.147,10.27-5.179,10.3,5.179Zm18.21-8.4a0.668,0.668,0,0,0-.38-0.588l-10.79-5.806a0.882,0.882,0,0,0-.78-0.022l-6.26,2.882-6.27-2.884a0.893,0.893,0,0,0-.78.023l-10.79,5.807a0.71,0.71,0,0,0-.38.59,0.7,0.7,0,0,0,.36.6l4.53,2.649-4.53,2.649a0.7,0.7,0,0,0-.36.6,0.707,0.707,0,0,0,.38.59l5.08,2.722v9.839a0.693,0.693,0,0,0,.4.611l11.96,6.135a0.855,0.855,0,0,0,.4.1,0.884,0.884,0,0,0,.4-0.1l11.97-6.135a0.7,0.7,0,0,0,.39-0.611v-9.843l5.07-2.717a0.668,0.668,0,0,0,.03-1.19l-4.5-2.651,4.5-2.65a0.671,0.671,0,0,0,.35-0.6h0Z" transform="translate(-1501.56 -867)"/>
</svg>
