<svg xmlns="http://www.w3.org/2000/svg" width="16.062" height="16" viewBox="0 0 16.062 16">
  <defs>
    <style>
      .cls-1 {
        fill: #404040;
        fill-rule: evenodd;
      }
    </style>
  </defs>
  <path class="cls-1" d="M743.183,788h-4.366a1.255,1.255,0,0,1-.913-0.395l-1.437-1.527a0.247,0.247,0,0,0-.18-0.078h-2.81a0.5,0.5,0,1,1,0-1h2.81a1.257,1.257,0,0,1,.913.394l1.436,1.528a0.253,0.253,0,0,0,.181.078h4.366a0.25,0.25,0,0,0,.181-0.079l1.436-1.527a1.257,1.257,0,0,1,.913-0.394h2.811a0.5,0.5,0,1,1,0,1h-2.811a0.249,0.249,0,0,0-.181.078L744.1,787.6A1.262,1.262,0,0,1,743.183,788Zm4.338,4H734.479a1.5,1.5,0,0,1-1.5-1.5v-5A0.5,0.5,0,0,1,733,785.35l1.4-4.475a1.134,1.134,0,0,1,1.1-.877h0.989a0.5,0.5,0,1,1,0,1H735.5a0.127,0.127,0,0,0-.125.1c0,0.016-.008.033-0.013,0.051l-1.381,4.423V790.5a0.5,0.5,0,0,0,.5.5h13.042a0.5,0.5,0,0,0,.5-0.5v-4.925l-1.381-4.424a0.405,0.405,0,0,1-.012-0.05,0.13,0.13,0,0,0-.126-0.1h-0.989a0.5,0.5,0,1,1,0-1H746.5a1.134,1.134,0,0,1,1.1.877l1.4,4.475a0.5,0.5,0,0,1,.023.149v5a1.5,1.5,0,0,1-1.5,1.5h0Zm-4.013-12.5a0.5,0.5,0,0,1-.355-0.146L741,777.205l-2.153,2.146a0.5,0.5,0,0,1-.709-0.707l2.508-2.5a0.5,0.5,0,0,1,.709,0l2.508,2.5a0.5,0.5,0,0,1-.355.854h0ZM741,785a0.5,0.5,0,0,1-.5-0.5v-8a0.5,0.5,0,0,1,1,0v8A0.5,0.5,0,0,1,741,785Z" transform="translate(-732.969 -776)"/>
</svg>
