<svg xmlns="http://www.w3.org/2000/svg" width="76" height="86.969" viewBox="0 0 76 86.969">
  <defs>
    <style>
      .cls-1 {
        fill: #44b265;
        fill-rule: evenodd;
      }
    </style>
  </defs>
  <path id="Shape_627_copy" data-name="Shape 627 copy" class="cls-1" d="M1480.94,579.425h-61.8V537.856h61.89v41.569h-0.09Zm0.18-48.7h-27.51v-6.158a3.57,3.57,0,0,0-7.14,0v6.154l-27.51,0a6.966,6.966,0,0,0-6.96,6.959v41.836a6.967,6.967,0,0,0,6.96,6.959h13.31l-7.86,14.628a3.6,3.6,0,0,0,1.43,4.815,3.683,3.683,0,0,0,1.69.446,3.623,3.623,0,0,0,3.13-1.874l9.64-18.019,6.17,0v17.933a3.57,3.57,0,0,0,7.14,0V586.561h6.08l9.64,18.019a3.623,3.623,0,0,0,3.13,1.874,3.924,3.924,0,0,0,1.69-.446,3.531,3.531,0,0,0,1.43-4.815l-7.86-14.629h13.31a6.974,6.974,0,0,0,6.97-6.958v-41.84a6.862,6.862,0,0,0-6.88-7.046h0Z" transform="translate(-1412 -521)"/>
</svg>
