<svg xmlns="http://www.w3.org/2000/svg" width="34.75" height="31" viewBox="0 0 34.75 31">
  <defs>
    <style>
      .cls-1 {
        fill: #fff;
        fill-rule: evenodd;
      }
    </style>
  </defs>
  <path class="cls-1" d="M80.949,787.575a1.55,1.55,0,1,1-1.544,1.55A1.53,1.53,0,0,1,80.949,787.575Zm-11.584,0a1.55,1.55,0,1,1-1.544,1.55A1.529,1.529,0,0,1,69.365,787.575Zm11.584-2.325a3.875,3.875,0,1,0,3.861,3.875A3.885,3.885,0,0,0,80.949,785.25Zm-11.584,0a3.875,3.875,0,1,0,3.861,3.875A3.885,3.885,0,0,0,69.365,785.25Zm-4.85-17.05H87.6l-1.8,7.823-17.605,1.4ZM56.623,762a1.163,1.163,0,0,0,0,2.325h3.849c1.917,4.765,3.805,9.539,5.707,14.313l-1.75,4.227a1.189,1.189,0,0,0,.105,1.094,1.175,1.175,0,0,0,.968.516H84.81a1.163,1.163,0,1,0,0-2.325H67.241l1-2.4,18.594-1.489a1.191,1.191,0,0,0,1.038-.9l2.317-10.075a1.217,1.217,0,0,0-1.134-1.417H63.585l-1.255-3.148A1.186,1.186,0,0,0,61.256,762H56.623Z" transform="translate(-55.469 -762)"/>
</svg>
