<svg xmlns="http://www.w3.org/2000/svg" width="30.38" height="31" viewBox="0 0 30.38 31">
  <defs>
    <style>
      .cls-1 {
        fill: #16ad9e;
        fill-rule: evenodd;
      }
    </style>
  </defs>
  <path id="Shape_643_copy" data-name="Shape 643 copy" class="cls-1" d="M1449.28,890.947l-13.12,5.388v-16.98l13.12-5.388v16.98Zm-27.61-16.98,4.16,1.7-0.03,7.935a0.665,0.665,0,0,0,.42.62l3.18,1.339a0.784,0.784,0,0,0,.27.065,0.67,0.67,0,0,0,.36-0.1,0.774,0.774,0,0,0,.33-0.555l0.16-7.347,4.26,1.763v16.947l-13.11-5.388V873.967h0Zm13.44-5.519,2.85,1.013-11.67,4.931-3.41-1.4Zm1.05,9.438-0.69.261-0.2-.065-3.9-1.6,11.94-5.126,4.69,1.666Zm-8.92-1.6,0.26,0.1,1.64,0.686-0.13,6.824-1.8-.718Zm14.17-5.616-11.81,5.061-1.54-.62,11.81-5Zm9.24,2.285-0.03-.163-0.03-.065-0.1-.163-0.1-.1-0.06-.034-0.17-.065-14.82-5.321a0.566,0.566,0,0,0-.46,0l-14.13,5.256-0.2.1-0.13.13a1.6,1.6,0,0,0-.1.228,1.55,1.55,0,0,0-.03.163V891.4a0.635,0.635,0,0,0,.42.62l14.56,5.943,0.17,0.033,0.19-.033,14.6-5.942a0.667,0.667,0,0,0,.42-0.62v-18.45h0Zm-8.52,11.854,4.39-1.861v5.845l-4.39,1.861v-5.845Zm-1.05,7.446a0.779,0.779,0,0,0,.39.1,0.591,0.591,0,0,0,.26-0.065l5.78-2.449a0.668,0.668,0,0,0,.42-0.62V881.9a0.8,0.8,0,0,0-.29-0.588,0.676,0.676,0,0,0-.66-0.065l-5.77,2.449a0.676,0.676,0,0,0-.43.619v7.348a0.6,0.6,0,0,0,.3.588h0Z" transform="translate(-1420.28 -867)"/>
</svg>
