<svg xmlns="http://www.w3.org/2000/svg" width="26" height="31" viewBox="0 0 26 31">
  <defs>
    <style>
      .cls-1 {
        fill: #fff;
        fill-rule: evenodd;
      }
    </style>
  </defs>
  <path class="cls-1" d="M78.082,881.054h0a1.388,1.388,0,0,0,0,1.994l3.112,3.041H69.271a1.426,1.426,0,0,0-1.441,1.41h0a1.426,1.426,0,0,0,1.441,1.409H81.193l-3.211,3.141a1.251,1.251,0,0,0,0,1.8l0.2,0.2a1.319,1.319,0,0,0,1.836,0l5.477-5.356a1.654,1.654,0,0,0,0-2.376l-5.377-5.257A1.464,1.464,0,0,0,78.082,881.054Zm-15.2-6.24h9.393a1.425,1.425,0,0,0,1.441-1.409h0A1.426,1.426,0,0,0,72.275,872H62.59A2.564,2.564,0,0,0,60,874.53v25.936A2.566,2.566,0,0,0,62.594,903h9.681a1.426,1.426,0,0,0,1.441-1.41h0a1.425,1.425,0,0,0-1.441-1.409H62.882v-25.37Z" transform="translate(-60 -872)"/>
</svg>
