<svg xmlns="http://www.w3.org/2000/svg" width="29.844" height="34.281" viewBox="0 0 29.844 34.281">
  <defs>
    <style>
      .cls-1 {
        fill: #fff;
        fill-rule: evenodd;
      }
    </style>
  </defs>
  <path class="cls-1" d="M85.072,571.022H60.8v-16.38h24.3v16.38H85.072Zm0.07-19.192h-10.8V549.4a1.4,1.4,0,1,0-2.805,0v2.425h-10.8A2.742,2.742,0,0,0,58,554.572v16.485a2.742,2.742,0,0,0,2.736,2.742h5.225l-3.086,5.764a1.425,1.425,0,0,0,.562,1.9,1.453,1.453,0,0,0,.666.175,1.417,1.417,0,0,0,1.227-.738l3.788-7.1h2.42v7.066a1.4,1.4,0,1,0,2.805,0v-7.032h2.385l3.788,7.1a1.416,1.416,0,0,0,1.227.739,1.555,1.555,0,0,0,.666-0.176,1.4,1.4,0,0,0,.562-1.9l-3.086-5.764h5.224a2.742,2.742,0,0,0,2.736-2.742V554.606a2.7,2.7,0,0,0-2.7-2.776h0Z" transform="translate(-58 -548)"/>
</svg>
