<svg xmlns="http://www.w3.org/2000/svg" width="42.85" height="31" viewBox="0 0 42.85 31">
  <defs>
    <style>
      .cls-1 {
        fill: #16ad9e;
        fill-rule: evenodd;
      }
    </style>
  </defs>
  <path id="Shape_642_copy" data-name="Shape 642 copy" class="cls-1" d="M1348.93,893.111l-5.36-1.964h0a0.766,0.766,0,0,0-.98.467,0.78,0.78,0,0,0,.46.992l5.36,1.964h0a0.768,0.768,0,0,0,.98-0.465,0.78,0.78,0,0,0-.46-0.993h0Zm0-2.357-5.36-1.964h0a0.757,0.757,0,0,0-.97.467,0.783,0.783,0,0,0,.45.991l5.36,1.964a0.726,0.726,0,0,0,.26.046,0.763,0.763,0,0,0,.75-0.641,0.777,0.777,0,0,0-.49-0.863h0Zm2.88,5.367V882.6l14.54-5.3V890.79Zm-16.07-5.331V877.164l3.36,1.214v4.332a0.77,0.77,0,0,0,.35.646,0.728,0.728,0,0,0,.71.068l2.6-1.113,2.79,3.668a0.757,0.757,0,0,0,.85.262,0.776,0.776,0,0,0,.52-0.735v-4.3l3.36,1.214v13.7Zm15.31-22.239,1.56,0.347-12.85,3-1.56-.459-0.11-.031Zm0.76,11.686,14.54-5.308v0.718l-14.54,5.3v-0.712Zm-4.89-1.394,3.36,1.214v0.709l-2.96-1.07v0a0.757,0.757,0,0,0-.4-0.019v-0.836Zm3.36-2.251v1.819l-2.96-1.07a0.737,0.737,0,0,0-.4-0.02v-1.713Zm1.53,0,14.54-4.276v0.965l-14.54,5.31v-2Zm12.1-5.172-12.86,3.784-1.99-.583,12.73-3.674Zm-23.28,1.863,15.47-3.6,2.53,0.564-12.68,3.661a0.355,0.355,0,0,0-.05.021v0c-0.04.019-.09,0.044-0.14,0.073a0.568,0.568,0,0,0-.21.192,0.588,0.588,0,0,0-.12.256,0.822,0.822,0,0,0-.03.157c0,0.016-.01.029-0.01,0.047v8.576l-1.77-2.334v0a0.769,0.769,0,0,0-.91-0.242l-2.08.891v-8.258Zm-4.89,1.524,3.36,1.213v0.71l-3.36-1.214v-0.709Zm3.36-1.491v1.057l-3.36-1.214v-0.832l0.95,0.278Zm28.09-2.751-0.02-.007-10.94-2.437v0L1351.21,867a0.784,0.784,0,0,0-.32,0l-16.05,3.53-0.01,0-0.02,0a0.791,0.791,0,0,0-.27.126c0,0.006-.02.006-0.02,0.012-0.02.011-.02,0.029-0.04,0.04a0.777,0.777,0,0,0-.15.192,0.215,0.215,0,0,0-.04.07,0.744,0.744,0,0,0-.08.291v20.064a0.767,0.767,0,0,0,.51.729l16.07,5.894a0.726,0.726,0,0,0,.26.046,0.767,0.767,0,0,0,.26-0.046l16.07-5.894a0.772,0.772,0,0,0,.5-0.729V871.327a0.759,0.759,0,0,0-.69-0.762h0Zm-8.22,20.326v-2.71l0.53,0.38a0.747,0.747,0,0,0,.83.041,0.759,0.759,0,0,0,.36-0.754q0.03,0.032.06,0.06a0.744,0.744,0,0,0,.56.159,0.755,0.755,0,0,0,.51-0.295l0.42-.543v2.486Zm4.47-6.56a0.5,0.5,0,0,0-.15-0.068,0.114,0.114,0,0,0-.04-0.033,0.15,0.15,0,0,0-.03,0v0a0.745,0.745,0,0,0-.4-0.007,0.3,0.3,0,0,0-.08.031,0.741,0.741,0,0,0-.31.213c-0.01.01-.02,0.011-0.03,0.021l-1.79,2.334a0.742,0.742,0,0,0-.15.557c-0.03-.029-0.05-0.055-0.08-0.08l-1.73-1.25a0.68,0.68,0,0,0-.16-0.07,0.114,0.114,0,0,0-.04-0.033,0.15,0.15,0,0,0-.03,0h0a0.75,0.75,0,0,0-.41-0.008,0.7,0.7,0,0,1-.07.027,0.723,0.723,0,0,0-.31.221,0.077,0.077,0,0,0-.03.02l-1.79,2.334a0.833,0.833,0,0,0-.16.574,0.8,0.8,0,0,0,.29.517,0.787,0.787,0,0,0,.57.157,0.74,0.74,0,0,0,.51-0.3l0.42-.543v2.5l-0.68.246a0.781,0.781,0,0,0-.47.991,0.765,0.765,0,0,0,.98.471l4.72-1.7v0a0.562,0.562,0,0,0,.08-0.016l2.35-.863,0.03-.007v0h0a0.418,0.418,0,0,0,.1-0.064,0.751,0.751,0,0,0,.16-0.1,0.539,0.539,0,0,0,.07-0.1,0.475,0.475,0,0,0,.1-0.14,0.635,0.635,0,0,0,.04-0.133,0.831,0.831,0,0,0,.04-0.154c-0.01-.046-0.01-0.093-0.02-0.137a0.921,0.921,0,0,0-.03-0.165v0a0.494,0.494,0,0,0-.09-0.147,0.632,0.632,0,0,0-.07-0.115,0.412,0.412,0,0,0-.12-0.091,0.52,0.52,0,0,0-.11-0.085,0.439,0.439,0,0,0-.06-0.015,0.847,0.847,0,0,0-.23-0.059l-0.01,0a0.709,0.709,0,0,0-.28.043l-0.17.06v-2.695l0.53,0.38a0.75,0.75,0,0,0,1.06-.182,0.773,0.773,0,0,0-.18-1.082Zm-31.53-12.694h-1.53a0.776,0.776,0,0,0,0,1.551h1.53A0.776,0.776,0,0,0,1331.91,871.637Zm0,4.653h-3.06a0.776,0.776,0,0,0,0,1.551h3.06A0.776,0.776,0,0,0,1331.91,876.29Zm0,4.652h-4.59a0.776,0.776,0,0,0,0,1.551h4.59A0.776,0.776,0,0,0,1331.91,880.942Zm0,4.653h-6.12a0.776,0.776,0,0,0,0,1.551h6.12A0.776,0.776,0,0,0,1331.91,885.6Zm0,4.653h-6.12a0.776,0.776,0,0,0,0,1.551h6.12A0.776,0.776,0,0,0,1331.91,890.248Z" transform="translate(-1325.03 -867)"/>
</svg>
