<svg xmlns="http://www.w3.org/2000/svg" width="36" height="36" viewBox="0 0 36 36">
  <defs>
    <style>
      .cls-1 {
        fill: #fff;
        fill-rule: evenodd;
      }
    </style>
  </defs>
  <path class="cls-1" d="M73,159a15,15,0,1,1,10.606-4.4A14.985,14.985,0,0,1,73,159Zm0-33a18,18,0,1,0,12.727,5.273A17.989,17.989,0,0,0,73,126Zm12,18a1.5,1.5,0,1,1-3,0,1.5,1.5,0,1,1,3,0m-21,0a1.5,1.5,0,1,1-3,0,1.5,1.5,0,1,1,3,0m18-7.5a1.5,1.5,0,1,1-3,0,1.5,1.5,0,1,1,3,0m-15,0a1.5,1.5,0,1,1-3,0,1.5,1.5,0,1,1,3,0m7.5-3a1.5,1.5,0,1,1-3,0,1.5,1.5,0,1,1,3,0m-4.11,17.408,2.61-6.1,2.61,6.083v0a5.86,5.86,0,0,1-5.221,0v0.015Zm3.99-10.5a1.5,1.5,0,0,0-2.76,0l-4.5,10.5a1.5,1.5,0,0,0,.563,1.814l0.4,0.269a8.864,8.864,0,0,0,9.87,0l0.4-.269h0a1.5,1.5,0,0,0,.563-1.814Z" transform="translate(-55 -126)"/>
</svg>
