<svg xmlns="http://www.w3.org/2000/svg" width="32" height="23" viewBox="0 0 32 23">
  <defs>
    <style>
      .cls-1 {
        fill: #fff;
        fill-rule: evenodd;
      }
    </style>
  </defs>
  <path class="cls-1" d="M87.853,448H58.142A1.147,1.147,0,0,0,57,449.152v20.695A1.147,1.147,0,0,0,58.142,471H87.853A1.147,1.147,0,0,0,89,469.847V449.152A1.147,1.147,0,0,0,87.853,448ZM79.937,468.7H66.058a8.041,8.041,0,0,0-6.773-6.815v-4.766a8.038,8.038,0,0,0,6.773-6.814H79.937a8.038,8.038,0,0,0,6.773,6.814v4.766A8.04,8.04,0,0,0,79.937,468.7Zm6.773-13.912a5.749,5.749,0,0,1-4.456-4.483H86.71v4.483ZM63.741,450.3a5.749,5.749,0,0,1-4.456,4.483V450.3h4.456Zm-4.456,13.912a5.749,5.749,0,0,1,4.456,4.483H59.285v-4.483ZM82.255,468.7a5.749,5.749,0,0,1,4.456-4.483V468.7H82.255ZM73,454.9a4.6,4.6,0,1,0,4.571,4.6A4.59,4.59,0,0,0,73,454.9Zm0,6.9a2.3,2.3,0,1,1,2.285-2.3A2.3,2.3,0,0,1,73,461.8Z" transform="translate(-57 -448)"/>
</svg>
