<svg xmlns="http://www.w3.org/2000/svg" width="92" height="100" viewBox="0 0 92 100">
  <defs>
    <style>
      .cls-1 {
        fill: #44b265;
        fill-rule: evenodd;
      }
    </style>
  </defs>
  <path id="Shape_625_copy" data-name="Shape 625 copy" class="cls-1" d="M515.526,539.817a4.8,4.8,0,1,1-4.879,4.795A4.832,4.832,0,0,1,515.526,539.817Zm0,16.124A11.279,11.279,0,1,0,504,544.612,11.468,11.468,0,0,0,515.526,555.941Zm29.59-30.612a4.88,4.88,0,1,1,4.879,4.8A4.833,4.833,0,0,1,545.116,525.329Zm16.4,0A11.528,11.528,0,1,0,550,536.657,11.468,11.468,0,0,0,561.521,525.329ZM550,607.57a4.8,4.8,0,1,1,4.879-4.8A4.9,4.9,0,0,1,550,607.57Zm11.526-4.9A11.528,11.528,0,1,0,550,614,11.468,11.468,0,0,0,561.521,602.671Zm-45.995-24.182a4.8,4.8,0,1,1-4.879,4.795A4.9,4.9,0,0,1,515.526,578.489Zm0,16.123A11.33,11.33,0,1,0,504,583.387a11.468,11.468,0,0,0,11.527,11.225h0Zm68.938-54.795a4.8,4.8,0,1,1-4.879,4.795A4.831,4.831,0,0,1,584.464,539.817Zm0,16.124a11.279,11.279,0,1,0-11.527-11.225A11.468,11.468,0,0,0,584.464,555.941Zm0,22.548a4.8,4.8,0,1,1-4.879,4.795A4.9,4.9,0,0,1,584.464,578.489Zm0,16.123a11.33,11.33,0,1,0-11.527-11.328A11.468,11.468,0,0,0,584.464,594.612ZM550,551.141A12.861,12.861,0,1,1,536.911,564,12.984,12.984,0,0,1,550,551.141ZM530.268,564A19.729,19.729,0,1,0,550,544.612,19.618,19.618,0,0,0,530.268,564Z" transform="translate(-504 -514)"/>
</svg>
