<svg xmlns="http://www.w3.org/2000/svg" width="29.53" height="38" viewBox="0 0 29.53 38">
  <defs>
    <style>
      .cls-1 {
        fill: #16ad9e;
        fill-rule: evenodd;
      }
    </style>
  </defs>
  <path id="Shape_641_copy" data-name="Shape 641 copy" class="cls-1" d="M1258.9,867.066l1.05,0.727-3.53,5.533-7.05,5.214-3.92-2.71Zm4.17-1.825a0.569,0.569,0,0,0,.08-0.222,1.035,1.035,0,0,1,.77-0.746l1.99,0.781a2.42,2.42,0,0,0-.45.917l-5.9,9.26-7.15,5.409-1.94-1.34,6.79-5.019v0a0.59,0.59,0,0,0,.15-0.168Zm4.25,2.466a0.973,0.973,0,0,1-.69-1.067,0.908,0.908,0,0,1,.69-1.014h0a0.559,0.559,0,0,1,.11.017,0.642,0.642,0,0,1,.13.054,0.566,0.566,0,0,1,.11.077,0.351,0.351,0,0,1,.07.075,0.684,0.684,0,0,1,.14.217l0.02,0.039h0a0.989,0.989,0,0,1,.07.233,1.037,1.037,0,0,1,.04.3,0.993,0.993,0,0,1-.69,1.069h0Zm4.18,8.116-12.74,9.211-5.26-3.637,6.9-5.22a0.637,0.637,0,0,0,.15-0.165l3.45-5.4Zm-12.1,23.357V886.133l5.47-3.958,7.09-5.127v13.487Zm-14.45-22.164,3.83,2.652-0.06,6.767a0.637,0.637,0,0,0,.3.549l3.14,1.9a0.623,0.623,0,0,0,.95-0.543v-5.677l5.03,3.475v13.069l-13.19-8.682V877.016Zm5.08,3.515,1.83,1.267v5.427l-1.88-1.141Zm-6.05,10.871,14.45,9.508a0.026,0.026,0,0,0,.02.011l0.03,0.019a0.7,0.7,0,0,0,.07.03,0.358,0.358,0,0,1,.05.019,0.591,0.591,0,0,0,.34,0,0.521,0.521,0,0,0,.05-0.02c0.03-.008.05-0.019,0.08-0.03l0.03-.021a0.03,0.03,0,0,0,.02-0.013l13.82-9.509a0.622,0.622,0,0,0,.28-0.525V875.808a0.854,0.854,0,0,0-.02-0.16c-0.01-.014-0.01-0.029-0.02-0.041h0a0.459,0.459,0,0,0-.05-0.108l-0.03-.048h0c-0.02-.028-0.04-0.055-0.06-0.079a0.657,0.657,0,0,0-.05-0.044c-0.01-.011-0.03-0.025-0.04-0.035l-8.28-5.75,0.81-1.267,1.1,0.529v0a1.686,1.686,0,0,0,.73.172,2.167,2.167,0,0,0,1.95-2.334,2.4,2.4,0,0,0-.04-0.464v-0.007a2.213,2.213,0,0,0-.8-1.42l-0.02-.01a1.576,1.576,0,0,0-.3-0.19l-0.03-.016a1.93,1.93,0,0,0-.45-0.163l-3.37-1.334a0.626,0.626,0,0,0-.23-0.042,2.257,2.257,0,0,0-2.07,1.647l-1.32,2.081-1.36-.941a0.63,0.63,0,0,0-.7-0.011l-14.59,9.507a0.183,0.183,0,0,0-.05.044c-0.02.014-.04,0.027-0.06,0.043s-0.04.051-.06,0.079l-0.03.049a0.465,0.465,0,0,0-.05.109,0.073,0.073,0,0,1-.02.04,0.843,0.843,0,0,0-.02.158v15.065a0.637,0.637,0,0,0,.29.532h0Zm21.07-2.754-3.14,2.264v-2.878l3.14-2.264v2.878Zm0.92-4.672a0.62,0.62,0,0,0-.65.048l-4.4,3.167a0.631,0.631,0,0,0-.27.517v4.435a0.655,0.655,0,0,0,.34.564,0.642,0.642,0,0,0,.66-0.048l4.39-3.168a0.629,0.629,0,0,0,.27-0.516V884.54A0.633,0.633,0,0,0,1265.97,883.976Zm-13.2,8.07,0.7-1.055,3.77,2.536-0.7,1.055Zm0,2.535,0.7-1.055,3.77,2.536-0.7,1.054Z" transform="translate(-1243.69 -863)"/>
</svg>
