<svg xmlns="http://www.w3.org/2000/svg" width="87.97" height="63" viewBox="0 0 87.97 63">
  <defs>
    <style>
      .cls-1 {
        fill: #44b265;
        fill-rule: evenodd;
      }
    </style>
  </defs>
  <path class="cls-1" d="M1040.84,534.972H959.132a3.147,3.147,0,0,0-3.142,3.15v56.686a3.146,3.146,0,0,0,3.142,3.149h81.708a3.147,3.147,0,0,0,3.14-3.149V538.122A3.148,3.148,0,0,0,1040.84,534.972Zm-21.77,56.686H980.9a22.064,22.064,0,0,0-18.626-18.666V559.938A22.067,22.067,0,0,0,980.9,541.271h38.169a22.067,22.067,0,0,0,18.62,18.667v13.054A22.064,22.064,0,0,0,1019.07,591.658Zm18.62-38.108a15.778,15.778,0,0,1-12.25-12.279h12.25V553.55Zm-63.162-12.279a15.777,15.777,0,0,1-12.253,12.279V541.271h12.253Zm-12.253,38.108a15.777,15.777,0,0,1,12.253,12.279H962.275V579.379Zm63.165,12.279a15.778,15.778,0,0,1,12.25-12.279v12.279h-12.25Zm-25.456-37.79a12.6,12.6,0,1,0,12.566,12.6A12.6,12.6,0,0,0,999.984,553.868Zm0,18.895a6.3,6.3,0,1,1,6.286-6.3A6.3,6.3,0,0,1,999.984,572.763Z" transform="translate(-956 -534.969)"/>
</svg>
