<svg xmlns="http://www.w3.org/2000/svg" width="20" height="20.094" viewBox="0 0 20 20.094">
  <defs>
    <style>
      .cls-1 {
        fill: #44b265;
        fill-rule: evenodd;
      }
    </style>
  </defs>
  <path class="cls-1" d="M1873.81,45.079a6,6,0,0,1-4.25-1.762,6.088,6.088,0,0,1,0-8.538,6,6,0,0,1,10.25,4.269,6.073,6.073,0,0,1-1.75,4.269A5.9,5.9,0,0,1,1873.81,45.079Zm11.43,3.884-4.91-4.93a8.236,8.236,0,0,0-.74-10.824,8.175,8.175,0,0,0-11.62,0,8.3,8.3,0,0,0,0,11.677,8.14,8.14,0,0,0,5.81,2.424,8.036,8.036,0,0,0,4.96-1.68l4.93,4.9a1.109,1.109,0,0,0,.8.33,1.105,1.105,0,0,0,.77-1.9h0Z" transform="translate(-1865.59 -30.781)"/>
</svg>
