<svg xmlns="http://www.w3.org/2000/svg" width="34" height="37" viewBox="0 0 34 37">
  <defs>
    <style>
      .cls-1 {
        fill: #fff;
        fill-rule: evenodd;
      }
    </style>
  </defs>
  <path class="cls-1" d="M60.26,346.552a1.775,1.775,0,1,1-1.8,1.775A1.787,1.787,0,0,1,60.26,346.552Zm0,5.966A4.173,4.173,0,1,0,56,348.327,4.241,4.241,0,0,0,60.26,352.518ZM71.2,341.191a1.8,1.8,0,1,1,1.8,1.775A1.787,1.787,0,0,1,71.2,341.191Zm6.063,0A4.26,4.26,0,1,0,73,345.383,4.241,4.241,0,0,0,77.258,341.191ZM73,371.621a1.774,1.774,0,1,1,1.8-1.774A1.811,1.811,0,0,1,73,371.621Zm4.26-1.813A4.26,4.26,0,1,0,73,374,4.241,4.241,0,0,0,77.258,369.808Zm-17-8.947a1.774,1.774,0,1,1-1.8,1.774A1.811,1.811,0,0,1,60.26,360.861Zm0,5.966A4.193,4.193,0,1,0,56,362.673a4.241,4.241,0,0,0,4.26,4.154h0Zm25.477-20.275a1.775,1.775,0,1,1-1.8,1.775A1.787,1.787,0,0,1,85.737,346.552Zm0,5.966a4.173,4.173,0,1,0-4.26-4.153A4.241,4.241,0,0,0,85.737,352.518Zm0,8.343a1.774,1.774,0,1,1-1.8,1.774A1.811,1.811,0,0,1,85.737,360.861Zm0,5.966a4.193,4.193,0,1,0-4.26-4.192A4.241,4.241,0,0,0,85.737,366.827ZM73,350.742a4.759,4.759,0,1,1-4.835,4.758A4.8,4.8,0,0,1,73,350.742Zm-7.29,4.758A7.291,7.291,0,1,0,73,348.327,7.254,7.254,0,0,0,65.708,355.5Z" transform="translate(-56 -337)"/>
</svg>
