<svg xmlns="http://www.w3.org/2000/svg" width="28" height="35" viewBox="0 0 28 35">
  <defs>
    <style>
      .cls-1 {
        fill: #fff;
        fill-rule: evenodd;
      }
    </style>
  </defs>
  <path class="cls-1" d="M73,246a5.445,5.445,0,1,0-5.444-5.445A5.443,5.443,0,0,0,73,246Zm0,3.111a8.556,8.556,0,1,1,8.555-8.556A8.556,8.556,0,0,1,73,249.111Zm0,4.667a10.89,10.89,0,0,0-10.862,10.111H83.862A10.889,10.889,0,0,0,73,253.778Zm14,10.889A2.332,2.332,0,0,1,84.673,267H61.327A2.334,2.334,0,0,1,59,264.667a14,14,0,1,1,28,0h0Z" transform="translate(-59 -232)"/>
</svg>
