<svg xmlns="http://www.w3.org/2000/svg" width="18" height="18" viewBox="0 0 18 18">
  <defs>
    <style>
      .cls-1 {
        fill: #00877a;
        fill-rule: evenodd;
      }
    </style>
  </defs>
  <path class="cls-1" d="M468.091,668.171a0.909,0.909,0,1,0,.909-0.909A0.908,0.908,0,0,0,468.091,668.171ZM469,664.019A7.981,7.981,0,1,1,461.019,672,7.979,7.979,0,0,1,469,664.019ZM478,672a9,9,0,1,0-9,9A9,9,0,0,0,478,672Zm-8.217-1.773H467.82v1.166h0.4v4.18h-0.4v1.166h2.36v-1.166h-0.4v-5.346Z" transform="translate(-460 -663)"/>
</svg>
