<svg xmlns="http://www.w3.org/2000/svg" width="32" height="32" viewBox="0 0 32 32">
  <defs>
    <style>
      .cls-1 {
        fill: #fff;
        fill-rule: evenodd;
      }
    </style>
  </defs>
  <path class="cls-1" d="M72,655a16,16,0,1,0,16,16A16.018,16.018,0,0,0,72,655Zm0,29.333A13.333,13.333,0,1,1,85.333,671,13.348,13.348,0,0,1,72,684.333Zm0.943-18.275a1.333,1.333,0,0,0-1.886,0l-6.666,6.666a1.333,1.333,0,1,0,1.886,1.885L72,668.886l5.724,5.723a1.333,1.333,0,1,0,1.886-1.885Z" transform="translate(-56 -655)"/>
</svg>
